HIERARCHY
ROOT Hips
{
	OFFSET	0.00	0.00	0.00
	CHANNELS 6 Xposition Yposition Zposition Zrotation Xrotation Yrotation
	JOINT Chest
	{
		OFFSET	0.00	6.28	0.00
		CHANNELS 3 Zrotation Xrotation Yrotation
		JOINT Neck
		{
			OFFSET	0.00	14.30	0.00
			CHANNELS 3 Zrotation Xrotation Yrotation
			JOINT Head
			{
				OFFSET	0.00	2.64	0.00
				CHANNELS 3 Zrotation Xrotation Yrotation
				End Site
				{
					OFFSET	0.00	4.50	0.00
				}
			}
		}
		JOINT LeftCollar
		{
			OFFSET	1.12	11.36	1.87
			CHANNELS 3 Zrotation Xrotation Yrotation
			JOINT LeftUpArm
			{
				OFFSET	4.57	2.02	-1.82
				CHANNELS 3 Zrotation Xrotation Yrotation
				JOINT LeftLowArm
				{
					OFFSET	0.22	-10.35	-0.06
					CHANNELS 3 Zrotation Xrotation Yrotation
					JOINT LeftHand
					{
						OFFSET	0.09	-10.35	2.18
						CHANNELS 3 Zrotation Xrotation Yrotation
						End Site
						{
							OFFSET	0.13	-6.69	1.71
						}
					}
				}
			}
		}
		JOINT RightCollar
		{
			OFFSET	-1.12	11.36	1.87
			CHANNELS 3 Zrotation Xrotation Yrotation
			JOINT RightUpArm
			{
				OFFSET	-4.71	2.03	-1.82
				CHANNELS 3 Zrotation Xrotation Yrotation
				JOINT RightLowArm
				{
					OFFSET	-0.26	-10.43	-0.06
					CHANNELS 3 Zrotation Xrotation Yrotation
					JOINT RightHand
					{
						OFFSET	0.00	-10.26	2.18
						CHANNELS 3 Zrotation Xrotation Yrotation
						End Site
						{
							OFFSET	-0.14	-6.67	1.71
						}
					}
				}
			}
		}
	}
	JOINT LeftUpLeg
	{
		OFFSET	3.91	0.00	0.00
		CHANNELS 3 Zrotation Xrotation Yrotation
		JOINT LeftLowLeg
		{
			OFFSET	-0.44	-17.57	1.70
			CHANNELS 3 Zrotation Xrotation Yrotation
			JOINT LeftFoot
			{
				OFFSET	-0.04	-17.20	-1.48
				CHANNELS 3 Zrotation Xrotation Yrotation
				End Site
				{
					OFFSET	0.00	-3.93	5.23
				}
			}
		}
	}
	JOINT RightUpLeg
	{
		OFFSET	-3.91	0.00	0.00
		CHANNELS 3 Zrotation Xrotation Yrotation
		JOINT RightLowLeg
		{
			OFFSET	0.44	-17.62	1.70
			CHANNELS 3 Zrotation Xrotation Yrotation
			JOINT RightFoot
			{
				OFFSET	0.00	-17.14	-1.48
				CHANNELS 3 Zrotation Xrotation Yrotation
				End Site
				{
					OFFSET	0.00	-4.04	5.23
				}
			}
		}
	}
}
MOTION
Frames: 23
Frame Time: 0.04
-38.39	4.84	26.06	10.46	1.37	122.39	-2.57	-0.36	-2.96	12.86	24.15	-8.82	-1.15	12.48	-0.08	-1.70	-12.41	-20.07	13.11	10.83	-41.91	-5.45	-3.50	4.76	-2.46	2.47	-0.52	10.07	-14.49	9.53	-10.28	17.28	25.38	-2.54	5.15	0.93	15.81	2.86	3.35	4.34	-1.48	-11.86	-3.84	22.39	-10.05	-2.09	-12.27	-0.38	4.26	7.49	-21.83	1.84	14.52	1.33	-3.94	-9.29	4.79	
-38.48	4.77	26.04	11.01	1.68	122.05	-2.23	0.17	-3.12	12.46	24.09	-8.51	-1.11	12.44	-0.08	-1.83	-12.36	-19.74	12.88	10.12	-39.42	-5.63	-3.66	5.17	-4.10	2.49	-0.87	9.88	-14.37	9.73	-10.36	17.17	25.86	-2.63	5.20	0.90	15.51	2.84	3.29	4.39	-1.31	-10.76	-3.87	23.21	-10.91	-1.98	-12.59	-0.38	3.99	7.31	-21.16	1.77	15.86	0.77	-3.96	-9.70	4.76	
-38.53	4.67	26.03	11.53	1.90	121.68	-2.31	0.20	-3.08	12.70	24.40	-8.62	-1.16	12.46	-0.08	-1.65	-13.28	-20.33	12.28	11.42	-39.88	-5.69	-3.75	5.40	-5.82	2.53	-1.23	9.76	-15.06	9.95	-9.58	17.41	24.40	-1.92	4.48	0.83	13.59	2.74	2.89	4.59	-1.18	-9.46	-3.93	24.16	-12.01	-1.92	-13.14	-0.39	3.82	7.14	-19.92	1.66	17.27	-0.12	-3.17	-10.74	4.75	
-38.74	4.49	25.96	11.59	1.02	120.17	0.24	-0.13	-3.19	10.48	24.18	-7.26	-1.25	12.35	-0.09	-3.32	-11.63	-18.42	13.11	9.45	-35.21	-7.05	-3.22	5.50	-6.44	2.54	-1.37	8.68	-13.36	10.41	-10.83	16.07	24.50	-2.61	5.20	0.95	15.14	2.82	3.21	4.83	-2.52	-8.83	-3.74	26.23	-11.19	-2.38	-14.39	-0.50	3.71	5.35	-17.10	1.53	19.69	-1.30	0.07	-12.17	5.01	
-39.01	4.39	25.87	11.81	2.01	118.56	0.33	1.77	-2.82	9.33	22.76	-6.18	-1.28	12.37	-0.09	-4.52	-8.51	-16.18	15.03	5.37	-37.77	-6.84	-3.38	6.21	-6.01	2.53	-1.27	8.82	-10.61	9.68	-12.63	11.69	24.67	-2.53	5.15	0.93	14.81	2.81	3.14	3.82	-1.79	-7.30	-3.63	26.14	-11.15	-3.00	-14.61	-0.60	2.23	4.49	-16.13	1.62	21.97	-0.85	-2.25	-12.23	4.76	
-39.06	4.28	25.84	12.37	2.34	117.71	0.06	1.98	-2.64	9.54	22.90	-6.16	-1.29	12.29	-0.10	-4.44	-8.88	-16.59	14.97	6.51	-34.07	-7.64	-2.77	6.85	-6.90	2.55	-1.46	8.91	-10.93	9.89	-12.25	11.55	26.49	-1.91	4.32	0.93	11.10	2.63	2.37	3.81	-1.29	-7.06	-3.61	26.81	-11.05	-3.72	-15.55	-0.77	1.91	4.33	-14.74	1.59	23.44	-1.42	-1.59	-12.98	4.81	
-39.11	4.19	25.80	13.08	2.73	116.91	-0.18	2.44	-2.51	9.66	22.96	-6.35	-1.21	12.26	-0.09	-4.44	-9.04	-16.84	15.20	7.62	-31.85	-8.17	-1.46	6.36	-6.79	2.55	-1.44	8.94	-11.06	10.04	-12.16	11.72	25.81	-1.69	4.32	0.78	10.54	2.60	2.25	4.13	-0.46	-5.31	-3.79	27.18	-12.08	-4.24	-16.32	-0.92	1.54	4.26	-13.83	1.51	25.05	-2.29	0.14	-13.64	5.02	
-39.14	4.11	25.77	13.86	3.09	116.18	-0.28	2.96	-2.40	9.67	22.92	-6.61	-1.16	12.28	-0.09	-4.57	-8.95	-16.85	15.56	8.11	-30.39	-8.25	-0.59	6.29	-6.13	2.53	-1.30	8.89	-10.95	10.11	-12.10	11.67	25.21	-1.54	4.37	0.68	10.04	2.59	2.14	4.25	0.36	-2.25	-3.82	28.39	-12.79	-2.27	-17.84	-0.61	1.31	4.58	-13.23	1.51	26.07	-2.28	0.27	-14.10	5.04	
-38.93	4.04	25.82	14.57	2.75	115.90	-0.98	1.17	-1.99	11.13	24.69	-8.01	-1.00	12.44	-0.07	-3.27	-12.99	-19.72	13.40	14.73	-28.97	-7.83	0.41	5.79	-4.88	2.51	-1.04	8.73	-14.40	11.21	-9.75	17.03	18.12	-1.18	4.77	0.33	12.54	2.69	2.67	5.36	0.91	-1.67	-3.95	29.15	-13.35	-2.89	-19.24	-0.80	2.21	5.14	-12.58	1.44	26.35	-2.94	0.34	-14.57	5.05	
-38.94	3.99	25.77	15.11	3.04	115.22	-0.88	1.23	-1.96	10.71	24.74	-8.17	-0.94	12.75	-0.06	-3.60	-12.93	-19.48	13.80	15.49	-30.53	-7.39	1.25	5.31	-3.37	2.48	-0.71	8.47	-14.28	11.45	-9.62	17.05	17.15	-1.51	4.93	0.42	13.45	2.73	2.86	4.90	1.66	-2.72	-3.70	29.20	-11.73	-4.08	-20.15	-1.15	1.96	5.40	-11.89	1.42	27.07	-3.12	0.77	-15.00	5.12	
-38.91	3.99	25.76	16.01	4.00	114.56	-2.19	2.28	-1.23	11.35	24.31	-9.65	-0.02	13.02	-0.00	-3.14	-12.37	-19.39	14.46	15.00	-28.86	-6.43	2.24	4.65	-3.68	2.49	-0.78	9.21	-14.04	10.88	-9.90	16.71	17.13	-1.33	4.92	0.28	13.67	2.75	2.91	4.40	3.46	-2.54	-3.63	28.48	-11.46	-4.76	-20.46	-1.34	1.48	7.69	-9.47	1.56	25.76	-1.92	1.63	-16.95	5.30	
-38.96	3.95	25.70	16.93	4.16	114.31	-1.28	3.42	-1.79	10.32	23.50	-9.03	-0.78	13.82	-0.04	-4.07	-10.40	-17.86	16.28	13.73	-42.21	-6.66	1.12	5.54	-0.85	2.46	-0.18	9.07	-12.46	10.12	-10.83	14.41	18.82	-1.37	5.05	0.29	13.59	2.74	2.89	4.45	4.24	-2.76	-3.59	28.83	-11.11	-5.07	-21.02	-1.47	1.47	8.42	-9.73	1.58	26.17	-1.73	1.38	-17.12	5.26	
-38.91	3.91	25.66	17.44	4.31	114.09	-1.25	3.39	-1.85	10.17	23.35	-9.19	-0.76	13.67	-0.04	-4.13	-10.43	-18.01	16.34	14.82	-39.32	-6.92	1.94	5.35	-1.59	2.47	-0.34	8.98	-12.45	10.13	-10.73	14.78	18.54	-1.21	5.08	0.17	13.17	2.72	2.80	4.51	4.82	-2.72	-3.60	29.08	-11.04	-5.23	-21.55	-1.55	1.51	8.75	-11.98	1.72	25.86	-0.25	1.35	-17.14	5.26	
-38.86	3.88	25.63	17.90	4.45	114.01	-1.28	3.25	-1.91	10.15	23.22	-9.31	-0.84	13.52	-0.04	-4.16	-10.40	-17.88	16.72	15.96	-39.96	-7.38	2.05	5.66	-2.30	2.47	-0.49	8.95	-12.43	10.11	-10.60	15.16	17.26	-1.12	5.09	0.09	13.06	2.71	2.78	4.59	5.35	-2.81	-3.60	29.27	-11.01	-5.50	-22.04	-1.67	1.46	8.94	-14.07	1.68	27.59	-0.71	0.66	-17.81	5.13	
-38.78	3.86	25.60	18.38	4.53	114.00	-1.22	3.02	-1.95	10.06	23.16	-9.39	-0.80	13.48	-0.04	-4.14	-10.55	-18.01	16.79	17.60	-39.37	-7.95	2.42	6.02	-3.78	2.49	-0.80	8.80	-12.49	10.21	-10.40	15.70	15.91	-1.06	5.13	0.05	13.01	2.71	2.77	4.74	5.89	-2.97	-3.61	29.45	-10.99	-5.67	-22.41	-1.76	1.32	10.04	-11.63	1.76	26.21	0.05	2.72	-18.07	5.56	
-38.68	3.81	25.57	18.61	4.13	114.15	-0.53	2.00	-2.16	9.67	23.49	-9.39	-0.65	13.36	-0.04	-4.48	-11.25	-18.16	16.40	19.98	-38.12	-8.26	2.47	6.25	-4.27	2.50	-0.91	8.21	-12.91	10.65	-9.98	17.10	15.09	-0.30	5.06	-0.20	12.12	2.67	2.58	5.24	5.74	-3.17	-3.64	30.21	-10.97	-5.63	-23.01	-1.80	1.64	10.33	-12.01	1.80	26.30	0.41	3.04	-18.39	5.64	
-38.58	3.78	25.55	18.99	4.06	114.31	-0.39	1.63	-2.02	9.61	23.42	-9.57	-0.43	13.16	-0.02	-4.45	-11.37	-18.04	16.17	21.27	-38.61	-7.84	2.20	6.34	-5.18	2.51	-1.10	8.10	-12.99	10.74	-10.10	18.03	15.59	-1.82	5.55	0.49	14.56	2.79	3.09	5.54	5.94	-3.21	-3.69	30.71	-11.18	-5.40	-23.28	-1.75	1.87	10.66	-13.80	1.79	27.39	0.33	1.89	-18.86	5.42	
-38.48	3.75	25.54	19.35	4.10	114.47	-0.50	1.38	-1.66	9.72	23.54	-9.38	0.48	11.14	0.04	-4.21	-11.70	-18.04	15.74	22.60	-39.97	-7.97	1.43	6.41	-3.99	2.49	-0.85	8.07	-13.27	10.82	-10.01	18.77	15.53	-1.56	5.53	0.40	14.72	2.80	3.12	5.75	6.19	-3.24	-3.71	31.12	-11.41	-5.18	-23.46	-1.70	2.01	11.15	-14.11	1.81	27.47	0.48	2.06	-19.08	5.46	
-38.39	3.72	25.52	19.66	4.15	114.66	-0.54	1.26	-1.29	9.66	23.29	-9.63	0.68	10.67	0.07	-4.10	-11.89	-17.88	15.41	23.52	-37.99	-7.09	1.92	5.96	-5.78	2.52	-1.23	7.97	-13.41	10.96	-9.91	19.24	15.14	-1.35	5.53	0.33	14.98	2.81	3.18	5.95	6.38	-3.25	-3.72	31.53	-11.66	-5.10	-23.55	-1.68	2.12	11.57	-14.39	1.83	27.57	0.68	1.93	-19.27	5.44	
-38.31	3.68	25.51	19.93	4.20	114.89	-0.49	1.26	-0.85	9.56	23.01	-9.89	0.78	9.76	0.09	-4.22	-11.75	-17.66	15.23	23.51	-25.92	-7.73	3.43	5.52	-5.68	2.52	-1.20	7.99	-13.26	11.05	-10.01	19.38	16.54	-1.29	5.50	0.27	14.48	2.79	3.07	6.14	6.49	-3.28	-3.75	31.99	-11.96	-4.90	-23.69	-1.63	2.16	11.86	-14.96	1.86	27.85	0.99	1.97	-19.47	5.45	
-38.23	3.64	25.51	20.17	4.25	115.28	-0.58	1.26	-0.29	9.61	22.77	-10.37	0.77	8.61	0.11	-4.23	-11.72	-17.65	15.61	24.27	-31.70	-8.62	2.99	6.28	-4.57	2.50	-0.97	8.11	-13.27	11.05	-10.02	19.66	16.68	-1.34	5.49	0.30	14.63	2.80	3.10	6.45	6.51	-3.08	-3.82	32.53	-12.65	-4.50	-23.80	-1.52	2.18	12.17	-15.87	1.91	28.12	1.45	2.06	-19.66	5.48	
-38.14	3.60	25.51	20.33	4.29	115.79	-0.72	1.26	0.37	9.74	22.50	-10.99	0.82	7.38	0.13	-4.05	-11.88	-17.73	15.50	24.42	-32.28	-8.93	2.93	6.73	-4.18	2.50	-0.89	8.16	-13.46	11.00	-9.83	20.06	16.72	-1.43	5.51	0.32	14.84	2.81	3.15	6.83	6.41	-2.81	-3.90	33.06	-13.58	-4.10	-23.83	-1.39	2.21	12.44	-16.86	1.97	28.30	1.98	2.14	-19.82	5.51	
-38.04	3.56	25.52	20.03	4.40	116.27	-1.33	0.51	1.21	10.05	22.71	-11.63	1.04	6.07	0.19	-3.44	-13.18	-18.41	14.48	25.77	-29.86	-8.04	3.45	6.37	-6.42	2.54	-1.36	8.07	-14.56	11.33	-8.74	21.49	21.62	0.00	4.66	-0.23	10.06	2.59	2.15	6.96	6.04	-2.39	-3.96	33.47	-14.54	-3.75	-23.88	-1.29	2.03	12.27	-17.80	2.02	28.66	2.48	1.73	-20.12	5.42	
